<svg viewBox="0 0 64 64" xmlns="http://www.w3.org/2000/svg" fill="currentColor" style="transform: scale(0.75)">
    <path d="M53 20H11a1 1 0 01-1-1v-2a5 5 0 015-5h34a5 5 0 015 5v2a1 1 0 01-1 1zm-41-2h40v-1a3 3 0 00-3-3H15a3 3 0 00-3 3z"/>
    <path d="M40 14H24a1 1 0 01-1-1v-1a5 5 0 015-5h8a5 5 0 015 5v1a1 1 0 01-1 1zm-15-2h14a3 3 0 00-3-3h-8a3 3 0 00-3 3zM39 50h-.17a1 1 0 01-.83-1.17L41 31a1 1 0 112 .33l-3 17.84a1 1 0 01-1 .83zM25 50a1 1 0 01-1-.83l-3-17.89a1 1 0 112-.28l3 17.88a1 1 0 01-.83 1.12z"/>
    <path d="M41.58 57H22.42a5 5 0 01-4.94-4.23L13 24.15A1 1 0 0114 23h36a1 1 0 011 1.15l-4.48 28.62A5 5 0 0141.58 57zM15.17 25l4.29 27.46a3 3 0 003 2.54h19.12a3 3 0 003-2.54L48.83 25z"/>
    <path d="M32 50a1 1 0 01-1-1V31a1 1 0 012 0v18a1 1 0 01-1 1z"/>
</svg>
