<svg width="12" height="14" viewBox="0 0 12 14" xmlns="http://www.w3.org/2000/svg">
    <path
        d="M11.3333 7C11.3333 6.26467 10.7353 5.66667 9.99996 5.66667H9.33329V3.66667C9.33329 1.82867 7.83796 0.333334 5.99996 0.333334C4.16196 0.333334 2.66663 1.82867 2.66663 3.66667V5.66667H1.99996C1.26463 5.66667 0.666626 6.26467 0.666626 7V12.3333C0.666626 13.0687 1.26463 13.6667 1.99996 13.6667H9.99996C10.7353 13.6667 11.3333 13.0687 11.3333 12.3333V7ZM3.99996 3.66667C3.99996 2.564 4.89729 1.66667 5.99996 1.66667C7.10263 1.66667 7.99996 2.564 7.99996 3.66667V5.66667H3.99996V3.66667Z"/>
</svg>
